<svg width="102" height="102" viewBox="0 0 102 102" fill="none" xmlns="http://www.w3.org/2000/svg">
<path d="M51.4499 102C37.9474 102 25.2538 96.7416 15.7054 87.1933C6.15823 77.646 0.899902 64.9524 0.899902 51.4499C0.899902 37.9474 6.15823 25.2538 15.7054 15.7054C25.2538 6.15823 37.9474 0.899902 51.4499 0.899902C64.9524 0.899902 77.646 6.15823 87.1933 15.7054C96.7416 25.2538 102 37.9474 102 51.4499C102 64.9524 96.7416 77.646 87.1933 87.1933C77.646 96.7416 64.9524 102 51.4499 102ZM51.4499 9.88657C40.348 9.88657 29.9111 14.2103 22.0601 22.0601C14.2103 29.9111 9.88657 40.348 9.88657 51.4499C9.88657 62.5518 14.2103 72.9887 22.0601 80.8397C29.9111 88.6895 40.348 93.0132 51.4499 93.0132C62.5518 93.0132 72.9887 88.6895 80.8397 80.8397C88.6895 72.9887 93.0132 62.5518 93.0132 51.4499C93.0132 40.348 88.6895 29.9111 80.8397 22.0601C72.9887 14.2103 62.5518 9.88657 51.4499 9.88657Z" fill="#F35A5A"/>
<path d="M80.8336 15.6978L15.7095 80.8403L22.0648 87.1939L87.189 22.0514L80.8336 15.6978Z" fill="#F35A5A"/>
</svg>
