<svg width="177" height="44" viewBox="0 0 177 44" fill="none" xmlns="http://www.w3.org/2000/svg">
<mask id="mask0_89_165" style="mask-type:alpha" maskUnits="userSpaceOnUse" x="0" y="9" width="177" height="26">
<path d="M26.632 19.16L19.828 32.912H16.48L9.712 19.16V35H0.604V33.452H4.096V9.836H11.692L18.172 23.66L24.688 9.836H32.248V33.452H35.74V35H26.632V19.16ZM65.8397 33.452V35H56.3717L54.0317 29.564H43.4837L41.1437 35H31.6757V33.452H35.8157L46.0397 9.836H51.4757L61.6637 33.452H65.8397ZM48.7757 17.324L45.6077 24.632H51.9077L48.7757 17.324ZM89.3159 33.452V35H79.9919L74.6279 26.72L69.2999 35H60.0839V33.452H63.5399L70.9919 22.112L63.1079 9.836H69.8399L74.6279 17.288L79.4159 9.836H86.1839L78.3359 21.968L85.8239 33.452H89.3159ZM96.7071 33.452V35H87.2031V33.452H96.7071ZM119.627 33.452V35H96.2993V33.452H99.7913V9.836H105.407V29.996H116.135V33.452H119.627ZM128.964 33.452V35H117.156V33.452H120.252V9.836H125.868V33.452H128.964ZM151.001 33.452V35H128.969V33.452H132.065V9.836H149.345V14.768H137.681V20.204H148.769V25.136H137.681V33.452H151.001ZM154.108 33.452V9.836H172.252V14.84H159.724V20.024H170.992V24.812H159.724V30.032H172.648V33.452H176.14V35H150.616V33.452H154.108Z" fill="white"/>
</mask>
<g mask="url(#mask0_89_165)">
<path d="M-12 -11H218V48H-12V-11Z" fill="url(#paint0_linear_89_165)"/>
</g>
<defs>
<linearGradient id="paint0_linear_89_165" x1="-12" y1="18.5" x2="218" y2="18.5" gradientUnits="userSpaceOnUse">
<stop stop-color="#FF0000"/>
<stop offset="1" stop-color="white"/>
</linearGradient>
</defs>
</svg>
